<svg width="900" height="300" viewBox="0 0 900 300" xmlns="http://www.w3.org/2000/svg">
  <defs>
    <linearGradient id="textGrad" x1="0%" y1="0%" x2="100%" y2="0%">
      <stop offset="0%"   style="stop-color:#c084fc"/>
      <stop offset="50%"  style="stop-color:#ffffff"/>
      <stop offset="100%" style="stop-color:#f472b6"/>
    </linearGradient>
    <filter id="glow">
      <feGaussianBlur stdDeviation="5" result="coloredBlur"/>
      <feMerge><feMergeNode in="coloredBlur"/><feMergeNode in="SourceGraphic"/></feMerge>
    </filter>
    <filter id="nodeGlow">
      <feGaussianBlur stdDeviation="3.5" result="coloredBlur"/>
      <feMerge><feMergeNode in="coloredBlur"/><feMergeNode in="SourceGraphic"/></feMerge>
    </filter>
    <linearGradient id="scanGrad" x1="0%" y1="0%" x2="0%" y2="100%">
      <stop offset="0%"   style="stop-color:#a855f7;stop-opacity:0"/>
      <stop offset="50%"  style="stop-color:#a855f7;stop-opacity:0.12"/>
      <stop offset="100%" style="stop-color:#a855f7;stop-opacity:0"/>
    </linearGradient>
    <radialGradient id="pulseL" cx="50%" cy="50%" r="50%">
      <stop offset="0%"   stop-color="#c084fc" stop-opacity="0.8"/>
      <stop offset="100%" stop-color="#c084fc" stop-opacity="0"/>
    </radialGradient>
    <radialGradient id="pulseR" cx="50%" cy="50%" r="50%">
      <stop offset="0%"   stop-color="#f472b6" stop-opacity="0.8"/>
      <stop offset="100%" stop-color="#f472b6" stop-opacity="0"/>
    </radialGradient>
  </defs>

  <!-- Background -->
  <rect width="900" height="300" fill="#0D0D1A" rx="16"/>

  <!-- Grid -->
  <g stroke="#a855f7" stroke-opacity="0.06" stroke-width="1">
    <line x1="0" y1="50"  x2="900" y2="50"/>  <line x1="0" y1="100" x2="900" y2="100"/>
    <line x1="0" y1="150" x2="900" y2="150"/> <line x1="0" y1="200" x2="900" y2="200"/>
    <line x1="0" y1="250" x2="900" y2="250"/>
    <line x1="100" y1="0" x2="100" y2="300"/> <line x1="200" y1="0" x2="200" y2="300"/>
    <line x1="300" y1="0" x2="300" y2="300"/> <line x1="400" y1="0" x2="400" y2="300"/>
    <line x1="500" y1="0" x2="500" y2="300"/> <line x1="600" y1="0" x2="600" y2="300"/>
    <line x1="700" y1="0" x2="700" y2="300"/> <line x1="800" y1="0" x2="800" y2="300"/>
  </g>

  <!-- LEFT neural edges -->
  <g stroke="#a855f7" stroke-opacity="0.4" stroke-width="1.3" fill="none">
    <line x1="40" y1="140" x2="60"  y2="80"/>  <line x1="40" y1="140" x2="60"  y2="200"/>
    <line x1="40" y1="140" x2="120" y2="130"/> <line x1="60" y1="80"  x2="120" y2="130"/>
    <line x1="60" y1="80"  x2="130" y2="60"/>  <line x1="130" y1="60" x2="190" y2="100"/>
    <line x1="120" y1="130" x2="190" y2="100"/> <line x1="120" y1="130" x2="175" y2="175"/>
    <line x1="60"  y1="200" x2="120" y2="130"/> <line x1="60"  y1="200" x2="175" y2="175"/>
    <line x1="175" y1="175" x2="190" y2="100"/>
  </g>

  <!-- RIGHT neural edges -->
  <g stroke="#f472b6" stroke-opacity="0.4" stroke-width="1.3" fill="none">
    <line x1="860" y1="140" x2="840" y2="80"/>  <line x1="860" y1="140" x2="840" y2="200"/>
    <line x1="860" y1="140" x2="780" y2="130"/> <line x1="840" y1="80"  x2="780" y2="130"/>
    <line x1="840" y1="80"  x2="770" y2="60"/>  <line x1="770" y1="60"  x2="710" y2="100"/>
    <line x1="780" y1="130" x2="710" y2="100"/> <line x1="780" y1="130" x2="725" y2="175"/>
    <line x1="840" y1="200" x2="780" y2="130"/> <line x1="840" y1="200" x2="725" y2="175"/>
    <line x1="725" y1="175" x2="710" y2="100"/>
  </g>

  <!-- Pulse rings LEFT -->
  <circle cx="40" cy="140" r="10" fill="url(#pulseL)" opacity="0.5">
    <animate attributeName="r" values="10;18;10" dur="2.5s" repeatCount="indefinite"/>
    <animate attributeName="opacity" values="0.5;0;0.5" dur="2.5s" repeatCount="indefinite"/>
  </circle>
  <circle cx="190" cy="100" r="8" fill="url(#pulseL)" opacity="0.4">
    <animate attributeName="r" values="8;15;8" dur="3s" begin="0.8s" repeatCount="indefinite"/>
    <animate attributeName="opacity" values="0.4;0;0.4" dur="3s" begin="0.8s" repeatCount="indefinite"/>
  </circle>

  <!-- Pulse rings RIGHT -->
  <circle cx="860" cy="140" r="10" fill="url(#pulseR)" opacity="0.5">
    <animate attributeName="r" values="10;18;10" dur="2.5s" begin="0.4s" repeatCount="indefinite"/>
    <animate attributeName="opacity" values="0.5;0;0.5" dur="2.5s" begin="0.4s" repeatCount="indefinite"/>
  </circle>
  <circle cx="710" cy="100" r="8" fill="url(#pulseR)" opacity="0.4">
    <animate attributeName="r" values="8;15;8" dur="3s" begin="1.2s" repeatCount="indefinite"/>
    <animate attributeName="opacity" values="0.4;0;0.4" dur="3s" begin="1.2s" repeatCount="indefinite"/>
  </circle>

  <!-- LEFT nodes -->
  <g filter="url(#nodeGlow)">
    <circle cx="40"  cy="140" r="5"   fill="#c084fc"/>
    <circle cx="60"  cy="80"  r="4"   fill="#c084fc"/>
    <circle cx="60"  cy="200" r="3.5" fill="#a855f7"/>
    <circle cx="130" cy="60"  r="3"   fill="#a855f7"/>
    <circle cx="120" cy="130" r="4"   fill="#c084fc"/>
    <circle cx="190" cy="100" r="4"   fill="#c084fc"/>
    <circle cx="175" cy="175" r="3.5" fill="#a855f7"/>
  </g>

  <!-- RIGHT nodes -->
  <g filter="url(#nodeGlow)">
    <circle cx="860" cy="140" r="5"   fill="#f472b6"/>
    <circle cx="840" cy="80"  r="4"   fill="#f472b6"/>
    <circle cx="840" cy="200" r="3.5" fill="#ec4899"/>
    <circle cx="770" cy="60"  r="3"   fill="#ec4899"/>
    <circle cx="780" cy="130" r="4"   fill="#f472b6"/>
    <circle cx="710" cy="100" r="4"   fill="#f472b6"/>
    <circle cx="725" cy="175" r="3.5" fill="#ec4899"/>
  </g>

  <!-- Corner brackets -->
  <g stroke="#a855f7" stroke-opacity="0.5" stroke-width="1.8" fill="none">
    <polyline points="0,32 32,32 32,0"/>    <polyline points="900,32 868,32 868,0"/>
    <polyline points="0,268 32,268 32,300"/> <polyline points="900,268 868,268 868,300"/>
  </g>
  <circle cx="32"  cy="32"  r="3" fill="#a855f7"/>
  <circle cx="868" cy="32"  r="3" fill="#f472b6"/>
  <circle cx="32"  cy="268" r="3" fill="#f472b6"/>
  <circle cx="868" cy="268" r="3" fill="#a855f7"/>

  <!-- Accent lines -->
  <line x1="220" y1="120" x2="318" y2="120" stroke="#a855f7" stroke-opacity="0.5" stroke-width="1"/>
  <line x1="582" y1="120" x2="680" y2="120" stroke="#f472b6" stroke-opacity="0.5" stroke-width="1"/>
  <circle cx="318" cy="120" r="2.5" fill="#a855f7" filter="url(#nodeGlow)"/>
  <circle cx="582" cy="120" r="2.5" fill="#f472b6" filter="url(#nodeGlow)"/>

  <!-- Scan glow -->
  <rect x="0" y="85" width="900" height="130" fill="url(#scanGrad)"/>

  <!-- Title glow layer -->
  <text x="450" y="152" text-anchor="middle"
        font-family="'Trebuchet MS', Arial Black, sans-serif"
        font-size="76" font-weight="900"
        fill="#a855f7" filter="url(#glow)" opacity="0.45" letter-spacing="5">KOMAL KASAT</text>

  <!-- Title -->
  <text x="450" y="152" text-anchor="middle"
        font-family="'Trebuchet MS', Arial Black, sans-serif"
        font-size="76" font-weight="900"
        fill="url(#textGrad)" letter-spacing="5">KOMAL KASAT</text>

  <!-- Subtitle -->
  <text x="450" y="192" text-anchor="middle"
        font-family="'Courier New', monospace"
        font-size="13.5" fill="#e2e8f0" letter-spacing="2.5" opacity="0.9">⚡ AI ARCHITECT  |  FULL STACK ENGINEER  |  NLP PIONEER ⚡</text>

  <!-- Tagline -->
  <text x="450" y="234" text-anchor="middle"
        font-family="'Courier New', monospace"
        font-size="10.5" fill="#a855f7" letter-spacing="2" opacity="0.65">[ SVKM's DJ SANGHVI COE  ·  B.TECH AI &amp; DATA SCIENCE  ·  MUMBAI ]</text>

  <!-- Border -->
  <rect width="900" height="300" fill="none" stroke="#a855f7" stroke-width="1.5" stroke-opacity="0.25" rx="16"/>
</svg>
